<svg version="1.1" viewBox="0.0 0.0 960.0 720.0" fill="none" stroke="none" stroke-linecap="square" stroke-miterlimit="10" xmlns:xlink="http://www.w3.org/1999/xlink" xmlns="http://www.w3.org/2000/svg"><clipPath id="p.0"><path d="m0 0l960.0 0l0 720.0l-960.0 0l0 -720.0z" clip-rule="nonzero"/></clipPath><g clip-path="url(#p.0)"><path fill="#000000" fill-opacity="0.0" d="m0 0l960.0 0l0 720.0l-960.0 0z" fill-rule="evenodd"/><path fill="#000000" fill-opacity="0.0" d="m177.02362 291.57217l556.3779 0" fill-rule="evenodd"/><path stroke="#000000" stroke-width="1.0" stroke-linejoin="round" stroke-linecap="butt" d="m177.02362 291.57217l556.3779 0" fill-rule="evenodd"/><path fill="#000000" fill-opacity="0.0" d="m177.27559 352.56168l605.44885 0" fill-rule="evenodd"/><path stroke="#000000" stroke-width="1.0" stroke-linejoin="round" stroke-linecap="butt" d="m177.27559 352.56168l605.44885 0" fill-rule="evenodd"/><path fill="#000000" fill-opacity="0.0" d="m197.85039 196.36473c35.59343 -11.867966 74.143265 -12.265793 111.57219 -14.876648c6.506134 -0.45384216 19.338593 -3.5482025 19.338593 2.973755c0 23.453339 -14.310577 45.067245 -16.364838 68.43045c-6.5150757 74.09636 -10.790802 149.34349 -1.4881897 223.14174c3.3338318 26.447601 3.110443 61.081024 25.29132 75.86612" fill-rule="evenodd"/><path stroke="#000000" stroke-width="1.0" stroke-linejoin="round" stroke-linecap="butt" d="m197.85039 196.36473c35.59343 -11.867966 74.143265 -12.265793 111.57219 -14.876648c6.506134 -0.45384216 19.338593 -3.5482025 19.338593 2.973755c0 23.453339 -14.310577 45.067245 -16.364838 68.43045c-6.5150757 74.09636 -10.790802 149.34349 -1.4881897 223.14174c3.3338318 26.447601 3.110443 61.081024 25.29132 75.86612" fill-rule="evenodd"/><path fill="#000000" fill-opacity="0.0" d="m303.46982 236.52986c46.589966 -9.321289 156.62128 -2.1327667 135.37271 -44.62993c-5.7655334 -11.531052 -22.828552 -14.161224 -35.700806 -14.876633c-10.013336 -0.55651855 -25.267456 -4.505066 -29.753265 4.464569c-20.525421 41.041794 -14.181183 90.97539 -14.876648 136.85826c-0.5186157 34.214905 -1.9179077 68.5968 1.4881897 102.64566c2.401825 24.009857 11.900269 47.274536 11.900269 71.404205" fill-rule="evenodd"/><path stroke="#000000" stroke-width="1.0" stroke-linejoin="round" stroke-linecap="butt" d="m303.46982 236.52986c46.589966 -9.321289 156.62128 -2.1327667 135.37271 -44.62993c-5.7655334 -11.531052 -22.828552 -14.161224 -35.700806 -14.876633c-10.013336 -0.55651855 -25.267456 -4.505066 -29.753265 4.464569c-20.525421 41.041794 -14.181183 90.97539 -14.876648 136.85826c-0.5186157 34.214905 -1.9179077 68.5968 1.4881897 102.64566c2.401825 24.009857 11.900269 47.274536 11.900269 71.404205" fill-rule="evenodd"/><path fill="#000000" fill-opacity="0.0" d="m512.29706 245.84354c-41.852325 31.080566 -85.11746 64.770874 -134.25604 76.743225c-31.32306 7.631714 -95.39273 21.943695 -95.39273 -13.773071c0 -7.063751 11.353088 -8.573395 17.662903 -7.8708496c26.72293 2.9754639 52.251892 14.152222 77.72983 23.612518c40.099854 14.889557 79.84274 30.981628 120.1214 45.259888c22.53601 7.988739 50.40674 6.9529114 67.12958 25.581085" fill-rule="evenodd"/><path stroke="#000000" stroke-width="1.0" stroke-linejoin="round" stroke-linecap="butt" d="m512.29706 245.84354c-41.852325 31.080566 -85.11746 64.770874 -134.25604 76.743225c-31.32306 7.631714 -95.39273 21.943695 -95.39273 -13.773071c0 -7.063751 11.353088 -8.573395 17.662903 -7.8708496c26.72293 2.9754639 52.251892 14.152222 77.72983 23.612518c40.099854 14.889557 79.84274 30.981628 120.1214 45.259888c22.53601 7.988739 50.40674 6.9529114 67.12958 25.581085" fill-rule="evenodd"/><path fill="#000000" fill-opacity="0.0" d="m559.3379 395.70395c-43.683533 -37.450928 -0.94647217 -115.129364 -4.461914 -172.56168c-1.34198 -21.923996 -9.446167 -60.743683 -31.241455 -58.01837c-8.415588 1.0522919 -4.2650757 7.886017 -4.461975 16.364838c-0.89123535 38.37712 5.8172607 76.64349 11.900269 114.54593c4.322693 26.933868 4.34906 26.95819 10.414734 53.553802c2.7892456 12.22995 -0.6437378 35.700775 11.900269 35.700775c5.5441895 0 -9.506165 -6.061493 -14.876648 -7.438324c-27.261078 -6.9888306 -60.19861 -2.8108826 -81.81891 -20.826752c-19.4021 -16.16745 35.39511 -36.196533 55.041992 -52.065613c17.749023 -14.336182 35.05316 -29.398132 50.580017 -46.11551c3.953064 -4.2561035 3.9534302 -13.571075 7.4383545 -8.923874c7.001709 9.33699 -6.0197144 22.628525 -7.4383545 34.2126c-3.2661133 26.670563 -2.5494385 26.75235 -4.4645386 53.553802c-0.3552246 4.9709473 -3.4954224 14.876648 1.4881592 14.876648c15.680542 0 -0.803833 -44.62729 14.876648 -44.62729c11.40509 0 -10.200073 29.112915 0 34.21521c6.0321655 3.017395 7.5825806 -11.183258 11.900269 -16.364838c2.3113403 -2.7737732 0.15692139 12.670074 2.9763794 10.414703c4.9970703 -3.997284 3.6748657 -5.2392883 7.4383545 -10.414703c0.76867676 -1.0570679 2.1304321 -11.26004 4.461914 -8.926483c5.541992 5.546875 5.5474243 19.341187 13.388489 19.341187c10.612366 0 17.604126 -12.022064 25.288696 -19.341187c17.53186 -16.69812 64.32214 -68.00844 41.653503 -59.503937c-13.803955 5.178772 -12.7421875 27.065369 -14.876587 41.653534c-4.7384644 32.385986 -16.669434 70.94867 1.4881592 98.18109" fill-rule="evenodd"/><path stroke="#000000" stroke-width="1.0" stroke-linejoin="round" stroke-linecap="butt" d="m559.3379 395.70395c-43.683533 -37.450928 -0.94647217 -115.129364 -4.461914 -172.56168c-1.34198 -21.923996 -9.446167 -60.743683 -31.241455 -58.01837c-8.415588 1.0522919 -4.2650757 7.886017 -4.461975 16.364838c-0.89123535 38.37712 5.8172607 76.64349 11.900269 114.54593c4.322693 26.933868 4.34906 26.95819 10.414734 53.553802c2.7892456 12.22995 -0.6437378 35.700775 11.900269 35.700775c5.5441895 0 -9.506165 -6.061493 -14.876648 -7.438324c-27.261078 -6.9888306 -60.19861 -2.8108826 -81.81891 -20.826752c-19.4021 -16.16745 35.39511 -36.196533 55.041992 -52.065613c17.749023 -14.336182 35.05316 -29.398132 50.580017 -46.11551c3.953064 -4.2561035 3.9534302 -13.571075 7.4383545 -8.923874c7.001709 9.33699 -6.0197144 22.628525 -7.4383545 34.2126c-3.2661133 26.670563 -2.5494385 26.75235 -4.4645386 53.553802c-0.3552246 4.9709473 -3.4954224 14.876648 1.4881592 14.876648c15.680542 0 -0.803833 -44.62729 14.876648 -44.62729c11.40509 0 -10.200073 29.112915 0 34.21521c6.0321655 3.017395 7.5825806 -11.183258 11.900269 -16.364838c2.3113403 -2.7737732 0.15692139 12.670074 2.9763794 10.414703c4.9970703 -3.997284 3.6748657 -5.2392883 7.4383545 -10.414703c0.76867676 -1.0570679 2.1304321 -11.26004 4.461914 -8.926483c5.541992 5.546875 5.5474243 19.341187 13.388489 19.341187c10.612366 0 17.604126 -12.022064 25.288696 -19.341187c17.53186 -16.69812 64.32214 -68.00844 41.653503 -59.503937c-13.803955 5.178772 -12.7421875 27.065369 -14.876587 41.653534c-4.7384644 32.385986 -16.669434 70.94867 1.4881592 98.18109" fill-rule="evenodd"/><path fill="#000000" fill-opacity="0.0" d="m390.8819 293.958l128.66144 0l0 53.322845l-128.66144 0z" fill-rule="evenodd"/><path fill="#000000" d="m401.67877 330.7599q-0.515625 -0.28125 -0.5625 -0.625q-0.03125 -0.328125 0.390625 -1.15625q0.421875 -0.84375 1.3125 -2.609375q0.671875 -1.265625 0.9375 -1.96875q0.265625 -0.71875 0.328125 -1.03125q0.078125 -0.3125 0.078125 -0.390625q-0.046875 -0.25 0.0625 -0.40625q0.109375 -0.15625 0.359375 -0.265625q0.140625 -0.140625 0.578125 -0.5q0.4375 -0.375 0.703125 -0.875q0.265625 -0.578125 0.59375 -1.1875q0.34375 -0.625 0.875 -1.5625q0.53125 -0.9375 1.421875 -2.453125q0.5625 -0.984375 1.296875 -2.140625q0.75 -1.171875 1.5 -2.171875q0.3125 -0.390625 0.609375 -0.609375q0.3125 -0.234375 0.578125 -0.234375q0.53125 0 1.0625 0.296875q0.546875 0.296875 1.0 0.734375q0.453125 0.421875 0.625 0.84375q0.140625 0.21875 0.109375 0.953125q-0.03125 0.734375 -0.125 1.765625q-0.078125 1.03125 -0.1875 2.21875q-0.078125 1.140625 -0.25 2.71875q-0.171875 1.5625 -0.328125 3.265625q-0.15625 1.703125 -0.234375 3.296875q-0.078125 1.578125 0 2.75q0.03125 0.25 0 0.46875q-0.03125 0.234375 -0.03125 0.375q-0.15625 0.171875 -0.671875 0.15625q-0.5 -0.015625 -0.984375 -0.1875q-0.46875 -0.171875 -0.53125 -0.421875q-0.078125 -0.078125 -0.09375 -0.15625q-0.015625 -0.09375 0.015625 -0.59375q0.03125 -0.5 0.0625 -1.734375l0.140625 -4.375l-0.375 0.03125q-0.25 0 -0.921875 0.0625q-0.671875 0.046875 -1.453125 0.15625q-0.78125 0.09375 -1.4375 0.1875q-0.65625 0.09375 -0.90625 0.1875q-0.265625 0 -0.609375 0.34375q-0.34375 0.328125 -0.65625 0.859375q-0.109375 0.390625 -0.40625 0.828125q-0.296875 0.421875 -0.296875 0.5625q-0.1875 0.140625 -0.3125 0.34375q-0.109375 0.1875 -0.109375 0.1875q0 0.171875 -0.265625 0.828125q-0.265625 0.65625 -0.640625 1.453125q-0.375 0.796875 -0.765625 1.390625l-0.703125 1.015625l-0.78125 -0.625zm6.375 -9.4375q0 0 0.3125 -0.046875q0.3125 -0.0625 0.71875 -0.125q0.421875 -0.078125 0.765625 -0.078125q0.8125 -0.1875 1.28125 -0.265625q0.484375 -0.09375 0.734375 -0.109375q0.25 -0.015625 0.421875 0.0625q0.109375 0.140625 0.203125 0.171875q0.109375 0.03125 0.109375 0.03125q0.015625 -0.0625 0.078125 -0.609375q0.078125 -0.546875 0.1875 -1.34375q0.125 -0.8125 0.234375 -1.6875q0.109375 -0.890625 0.171875 -1.65625q0.078125 -0.78125 0.109375 -1.203125q0.03125 -0.53125 0 -0.953125q-0.03125 -0.4375 -0.03125 -0.4375q-0.171875 0 -0.671875 0.609375q-0.484375 0.609375 -1.109375 1.609375q-0.625 1.0 -1.21875 2.140625q-0.28125 0.53125 -0.515625 0.890625q-0.234375 0.34375 -0.375 0.34375q-0.0625 0.0625 -0.3125 0.453125q-0.25 0.390625 -0.53125 0.875q-0.28125 0.484375 -0.46875 0.890625q-0.171875 0.390625 -0.09375 0.4375zm18.287811 7.640625q-0.609375 -0.046875 -1.015625 -0.25q-0.390625 -0.21875 -0.640625 -0.828125q-0.109375 -0.453125 -0.125 -0.9375q-0.015625 -0.5 0.03125 -0.9375q0.046875 -0.453125 0.078125 -0.734375q0.015625 -0.0625 0.015625 -0.265625q0 -0.21875 0 -0.4375q-0.046875 -0.453125 -0.234375 -0.546875q-0.1875 -0.09375 -0.578125 0.09375q-0.5625 0.28125 -1.296875 0.765625q-0.71875 0.46875 -1.5 1.09375q-0.78125 0.609375 -1.5625 1.28125q-0.625 0.671875 -0.859375 1.0625q-0.234375 0.390625 -0.515625 0.390625q-0.21875 0.109375 -0.453125 -0.015625q-0.21875 -0.140625 -0.5 -0.375q-0.203125 -0.21875 -0.4375 -0.53125q-0.234375 -0.3125 -0.296875 -0.421875q0 -0.328125 0.0625 -0.71875q0.078125 -0.390625 0.234375 -0.8125q0.15625 -0.421875 0.328125 -0.78125q0.109375 -0.140625 0.203125 -0.375q0.109375 -0.25 0.265625 -0.53125q0.09375 -0.359375 0.3125 -0.890625q0.21875 -0.53125 0.421875 -0.984375q0.328125 -0.703125 0.5 -1.203125q0.171875 -0.5 0.25 -1.140625q-0.015625 -0.0625 0.046875 -0.171875q0.0625 -0.109375 0.1875 -0.140625l0 0l0.015625 0q0.203125 -0.171875 0.671875 -0.0625q0.484375 0.09375 0.734375 0.375q0.5625 0.546875 0.515625 1.328125q-0.03125 0.765625 -0.84375 2.078125q-0.203125 0.453125 -0.390625 0.796875q-0.171875 0.328125 -0.171875 0.46875q0 0 0.25 -0.171875q0.25 -0.1875 0.578125 -0.421875q0.34375 -0.25 0.5625 -0.390625q0.140625 -0.140625 0.609375 -0.515625q0.484375 -0.375 1.0625 -0.765625q0.578125 -0.390625 0.875 -0.5625q0.28125 -0.203125 0.6875 -0.390625q0.40625 -0.203125 0.515625 -0.203125q0.265625 0 0.65625 0.21875q0.390625 0.203125 0.71875 0.5q0.34375 0.296875 0.390625 0.515625q0 0.109375 -0.015625 0.265625q0 0.15625 0 0.296875q0.015625 0.421875 0.03125 1.046875q0.015625 0.609375 -0.015625 1.203125q-0.015625 0.578125 -0.140625 0.9375q0 0 0.03125 0.0625q0.03125 0.046875 0.09375 0.109375q-0.03125 0.0625 -0.015625 0.125q0.015625 0.046875 0.015625 0.046875q-0.03125 0.109375 0.015625 0.328125q0.0625 0.203125 0.1875 0.453125q0.125 0.25 0.296875 0.5625q0.078125 0.359375 -0.1875 0.6875q-0.265625 0.3125 -0.65625 0.421875zm3.549286 0.140625q-0.109375 -0.21875 -0.421875 -0.40625q-0.296875 -0.203125 -0.296875 -0.3125q0 -0.109375 -0.09375 -0.296875q-0.078125 -0.203125 -0.1875 -0.328125q-0.140625 -0.15625 0.0625 -0.796875q0.21875 -0.65625 0.640625 -1.578125q0.421875 -0.921875 0.953125 -1.90625q0.21875 -0.21875 0.4375 -0.578125q0.234375 -0.375 0.34375 -0.484375q0 -0.109375 0.078125 -0.203125q0.09375 -0.109375 0.203125 -0.109375l0.171875 -0.359375q0.015625 -0.109375 0.296875 -0.4375q0.28125 -0.34375 0.703125 -0.75q0.421875 -0.40625 0.84375 -0.765625q0.421875 -0.375 0.703125 -0.53125q0.578125 -0.390625 1.203125 -0.40625q0.640625 -0.015625 1.09375 0.34375q0.078125 0.078125 0.34375 0.328125q0.265625 0.234375 0.59375 0.515625q0.34375 0.28125 0.625 0.53125l1.03125 0.921875l-0.46875 1.40625q-0.375 1.109375 -0.1875 1.953125q0.1875 0.84375 0.515625 1.453125q0.140625 0.3125 0.453125 0.53125q0.3125 0.203125 0.703125 0.25q0.21875 0.03125 0.40625 0.171875q0.203125 0.140625 0.203125 0.453125q0 0.53125 -0.203125 0.78125q-0.1875 0.25 -0.46875 0.3125q-0.921875 0.109375 -1.75 -0.28125q-0.828125 -0.390625 -1.5 -1.6875q-0.109375 -0.15625 -0.296875 -0.625q-0.171875 -0.46875 -0.203125 -0.609375q-0.109375 0.140625 -0.34375 0.40625q-0.21875 0.265625 -0.390625 0.4375q-1.984375 2.015625 -3.421875 2.65625q-1.421875 0.625 -2.375 0zm1.375 -2.0625q0.140625 0.078125 0.609375 -0.140625q0.484375 -0.21875 1.1875 -0.78125q0.953125 -0.8125 1.671875 -1.5q0.734375 -0.6875 1.328125 -1.53125l0.609375 -1.0q-0.28125 -0.65625 -0.53125 -0.859375q-0.25 -0.203125 -0.46875 -0.203125q-0.375 0 -0.953125 0.53125q-0.5625 0.53125 -1.25 1.5q-0.6875 0.953125 -1.46875 2.265625q-0.34375 0.59375 -0.546875 1.15625q-0.1875 0.5625 -0.1875 0.5625zm14.122803 2.875q-0.40625 -0.109375 -0.75 -0.34375q-0.328125 -0.234375 -0.734375 -0.609375q-0.34375 -0.4375 -0.5 -0.8125q-0.15625 -0.390625 -0.1875 -0.90625q-0.015625 -0.515625 -0.015625 -1.328125q0 -0.328125 0.125 -0.953125q0.125 -0.640625 0.28125 -1.34375q0.15625 -0.703125 0.296875 -1.25q0.15625 -0.546875 0.1875 -0.703125q0.09375 -0.375 -0.28125 -0.421875q-0.359375 -0.0625 -0.796875 -0.046875q-0.4375 0.015625 -0.578125 -0.0625q-0.109375 -0.03125 -0.109375 -0.21875q0 -0.203125 0 -0.203125q0 -0.109375 -0.09375 -0.15625q-0.078125 -0.046875 -0.15625 -0.1875q-0.046875 -0.109375 0.109375 -0.390625q0.171875 -0.28125 0.484375 -0.328125q0.25 -0.0625 0.734375 -0.09375q0.5 -0.046875 0.984375 -0.203125q0.484375 -0.15625 0.765625 -0.484375q0.25 -0.625 0.578125 -1.34375q0.328125 -0.734375 0.609375 -1.296875q0.296875 -0.5625 0.40625 -0.703125q0.484375 -0.25 0.890625 -0.203125q0.40625 0.046875 0.6875 0.484375q0.140625 0.203125 0.21875 0.296875q0.078125 0.09375 0.046875 0.28125q-0.015625 0.1875 -0.234375 0.640625q-0.203125 0.4375 -0.671875 1.328125q-0.140625 0.28125 -0.265625 0.5q-0.109375 0.203125 -0.109375 0.203125q0.109375 0.03125 0.328125 0.03125q0.234375 0 0.578125 -0.03125q0.296875 -0.0625 0.6875 -0.09375q0.390625 -0.046875 0.671875 0.015625q0.65625 0 0.953125 0.328125q0.3125 0.3125 0.34375 0.875q0.046875 0.296875 -0.1875 0.46875q-0.234375 0.171875 -0.984375 0.171875q-0.265625 0 -0.75 0.03125q-0.484375 0.03125 -1.015625 0.0625q-0.53125 0.015625 -0.921875 0.0625q-0.375 0.046875 -0.375 0.09375q-0.078125 0.0625 -0.265625 0.46875q-0.171875 0.40625 -0.359375 0.96875q-0.1875 0.546875 -0.328125 1.03125q-0.1875 0.953125 -0.28125 1.859375q-0.078125 0.90625 -0.015625 1.578125q0.078125 0.671875 0.328125 0.953125q0.25 0.25 0.828125 0.03125q0.59375 -0.21875 1.046875 -0.59375q0.5 -0.421875 0.84375 -0.3125q0.359375 0.09375 0.421875 0.5q0.078125 0.40625 -0.28125 0.9375q-0.34375 0.53125 -0.921875 0.90625q-0.5625 0.359375 -1.1875 0.5q-0.609375 0.15625 -1.078125 0.015625zm15.643036 -0.421875q-0.53125 0.140625 -1.0 0.171875q-0.453125 0.03125 -0.875 -0.390625q-0.25 -0.390625 -0.453125 -0.6875q-0.1875 -0.3125 -0.25 -1.109375q-0.03125 -0.53125 0.0625 -1.15625q0.109375 -0.625 0.078125 -0.90625q0.234375 -1.03125 0.140625 -1.53125q-0.078125 -0.515625 -0.21875 -0.515625q-0.3125 -0.0625 -1.015625 0.5q-0.6875 0.5625 -1.640625 1.515625q-0.9375 0.953125 -1.9375 2.09375q-0.53125 0.734375 -0.765625 1.09375q-0.21875 0.34375 -0.328125 0.34375q-0.421875 0 -0.8125 -0.15625q-0.390625 -0.15625 -0.640625 -0.4375q-0.25 -0.28125 -0.28125 -0.5625q0 -0.109375 0.125 -0.59375q0.125 -0.484375 0.328125 -1.125q0.21875 -0.65625 0.390625 -1.21875q0.171875 -0.5625 0.25 -0.78125q0.28125 -0.734375 0.625 -1.78125q0.359375 -1.046875 0.640625 -1.859375q0.109375 -0.359375 0.390625 -1.046875q0.28125 -0.6875 0.546875 -1.390625q0.28125 -0.703125 0.40625 -1.03125q0.078125 -0.21875 0.296875 -0.796875q0.234375 -0.578125 0.5 -1.28125q0.265625 -0.703125 0.5 -1.296875q0.234375 -0.609375 0.3125 -0.890625q-0.015625 -0.25 0.046875 -0.453125q0.078125 -0.21875 0.15625 -0.328125q0.109375 0 0.25 0q0.140625 -0.015625 0.140625 -0.015625q0 -0.0625 0.3125 0.109375q0.328125 0.15625 0.65625 0.40625q0.328125 0.234375 0.328125 0.40625q0.125 0.359375 0.015625 0.9375q-0.109375 0.5625 -0.578125 1.71875q-0.3125 0.453125 -0.609375 1.34375q-0.296875 0.890625 -0.578125 1.515625q-0.109375 0.1875 -0.34375 0.734375q-0.234375 0.546875 -0.546875 1.28125q-0.3125 0.71875 -0.59375 1.5q-0.265625 0.765625 -0.46875 1.46875q-0.28125 0.671875 -0.203125 0.890625q0.09375 0.21875 0.671875 -0.5q0.796875 -0.84375 1.546875 -1.5625q0.75 -0.734375 1.40625 -1.203125q0.671875 -0.484375 1.140625 -0.4375q0.25 0.0625 0.609375 0.359375q0.375 0.296875 0.71875 0.65625q0.359375 0.359375 0.46875 0.703125q0.109375 0.421875 0.140625 0.765625q0.046875 0.328125 0.015625 0.96875q-0.015625 0.640625 -0.125 1.9375q-0.171875 0.9375 -0.234375 1.34375q-0.046875 0.40625 0.046875 0.578125q0.09375 0.171875 0.328125 0.359375q0.40625 0.34375 0.34375 0.734375q-0.046875 0.390625 -0.4375 0.609375zm5.661316 -0.15625q-0.59375 0.109375 -0.828125 -0.03125q-0.234375 -0.140625 -0.546875 -0.421875q-0.453125 -0.21875 -0.796875 -0.59375q-0.34375 -0.390625 -0.515625 -0.796875q-0.171875 -0.421875 -0.140625 -0.6875q0.078125 -0.96875 0.453125 -2.109375q0.390625 -1.15625 0.96875 -2.21875q0.59375 -1.0625 1.328125 -1.890625q0.75 -0.828125 1.53125 -1.171875q0.5625 -0.21875 1.15625 -0.15625q0.609375 0.046875 0.828125 0.53125q0.421875 0.8125 -0.1875 1.03125q-0.09375 0 -0.203125 0.078125q-0.109375 0.0625 -0.109375 0.171875q0.109375 0.0625 0.609375 0.015625q0.515625 -0.046875 1.03125 -0.171875q0.515625 -0.125 0.6875 -0.265625q0.15625 -0.078125 0.234375 -0.078125q0.09375 0 0.4375 0.046875q0.46875 0.140625 0.46875 0.34375q0 0.109375 0.078125 0.3125q0.09375 0.1875 0.203125 0.1875q0.203125 0.03125 0.0625 0.359375q-0.140625 0.3125 -0.703125 0.703125q-0.53125 0.34375 -0.65625 0.4375q-0.125 0.09375 -0.046875 0.40625q0.21875 0.53125 -0.015625 1.265625q-0.234375 0.71875 -0.796875 1.515625q-0.5625 0.78125 -1.328125 1.46875q-0.765625 0.671875 -1.609375 1.15625q-0.84375 0.46875 -1.59375 0.5625zm-0.09375 -1.984375q0.125 0 0.390625 -0.125q0.28125 -0.140625 0.453125 -0.21875q0.109375 -0.109375 0.296875 -0.265625q0.1875 -0.15625 0.296875 -0.1875q0.109375 0 0.171875 -0.09375q0.078125 -0.09375 0.28125 -0.40625q0.21875 -0.328125 0.71875 -0.984375q0.5625 -0.609375 0.78125 -1.03125q0.234375 -0.421875 0.09375 -0.859375q-0.03125 -0.125 -0.15625 -0.140625q-0.125 -0.03125 -0.328125 -0.140625q-0.28125 0 -0.4375 0.03125q-0.140625 0.015625 -0.453125 -0.234375l-0.453125 -0.5625l-0.46875 0.484375q-0.453125 0.4375 -0.84375 1.1875q-0.390625 0.734375 -0.640625 1.515625q-0.234375 0.765625 -0.28125 1.296875q-0.03125 0.421875 0.140625 0.5625q0.171875 0.140625 0.4375 0.171875zm8.458282 2.6875q-0.53125 0.140625 -0.921875 -0.265625q-0.390625 -0.40625 -0.515625 -1.21875q-0.125 -0.8125 0.09375 -1.859375q0.140625 -0.328125 0.21875 -0.640625q0.09375 -0.328125 0.09375 -0.53125q0.0625 -0.28125 0.21875 -0.828125q0.171875 -0.546875 0.359375 -1.125q0.203125 -0.59375 0.375 -1.046875q0.1875 -0.46875 0.25 -0.578125q0.109375 0 0.1875 -0.1875q0.09375 -0.203125 0.09375 -0.40625q0 -0.21875 0.09375 -0.5q0.109375 -0.28125 0.21875 -0.390625q0 -0.140625 0.0625 -0.328125q0.078125 -0.1875 0.078125 -0.296875q0 -0.109375 0.0625 -0.21875q0.078125 -0.109375 0.078125 -0.21875q0.1875 -0.375 0.5 -1.171875q0.328125 -0.796875 0.703125 -1.765625q0.390625 -0.984375 0.71875 -1.9375q0.34375 -0.953125 0.546875 -1.609375q0.21875 -0.65625 0.21875 -0.796875q0 -0.234375 0.140625 -0.390625q0.15625 -0.171875 0.390625 -0.171875q0.078125 -0.09375 0.3125 -0.125q0.25 -0.046875 0.359375 -0.046875q0 0 0.109375 0.109375q0.109375 0.109375 0.328125 0.34375q0.234375 0.1875 0.375 0.453125q0.15625 0.25 0.15625 0.578125q0 0.359375 -0.078125 0.6875q-0.078125 0.328125 -0.34375 0.890625q-0.25 0.546875 -0.78125 1.671875q-0.21875 0.5625 -0.46875 1.046875q-0.25 0.484375 -0.25 0.609375q0 0.109375 -0.109375 0.328125q-0.09375 0.21875 -0.203125 0.5625q-0.109375 0.21875 -0.3125 0.65625q-0.1875 0.4375 -0.40625 0.9375q-0.203125 0.484375 -0.34375 0.828125q-0.140625 0.34375 -0.140625 0.40625q0 0.109375 -0.015625 0.21875q-0.015625 0.109375 -0.125 0.234375q-0.109375 0 -0.125 0.15625q-0.015625 0.140625 -0.015625 0.140625q0 0.28125 -0.453125 1.484375q-0.4375 1.546875 -0.828125 2.84375q-0.375 1.28125 -0.375 2.0625q0 0.671875 -0.15625 0.984375q-0.140625 0.296875 -0.375 0.421875zm5.7437744 -0.59375q-1.09375 -0.453125 -1.484375 -1.390625q-0.390625 -0.9375 -0.1875 -2.609375q0.046875 -0.875 -0.03125 -1.171875q-0.0625 -0.296875 -0.375 -0.5625q-0.078125 -0.125 -0.359375 -0.359375q-0.28125 -0.234375 -0.25 -0.375q-0.03125 -0.203125 0.0625 -0.46875q0.109375 -0.28125 0.1875 -0.28125q0.171875 -0.0625 0.34375 -0.15625q0.1875 -0.109375 0.296875 -0.046875q0.125 0 0.328125 0.109375q0.203125 0.09375 0.203125 0.203125q0.125 0.1875 0.359375 -0.09375q0.234375 -0.296875 0.515625 -0.859375q0.28125 -0.453125 0.703125 -0.859375q0.4375 -0.40625 0.890625 -0.734375q0.453125 -0.34375 0.75 -0.515625q0.140625 -0.046875 0.5 -0.15625q0.375 -0.125 0.78125 -0.171875q0.40625 -0.0625 0.625 -0.03125q0.515625 0.03125 1.0 0.375q0.484375 0.328125 0.796875 0.65625q0.359375 0.265625 0.46875 0.75q0.125 0.484375 0.09375 1.015625q-0.03125 0.53125 -0.21875 0.921875q-0.09375 0.28125 -0.578125 0.75q-0.46875 0.46875 -1.03125 0.90625q-0.546875 0.421875 -0.96875 0.59375q-0.375 0.078125 -0.90625 0.125q-0.53125 0.046875 -0.984375 0.015625q-0.4375 -0.03125 -0.609375 -0.109375q-0.1875 -0.125 -0.3125 0.140625q-0.125 0.265625 -0.21875 1.0625q-0.03125 0.390625 0.015625 0.640625q0.046875 0.25 0.09375 0.359375q0.203125 0.28125 0.453125 0.484375q0.25 0.1875 0.8125 0.109375q0.53125 -0.09375 1.078125 -0.6875q0.546875 -0.609375 1.0 -0.96875q0.109375 -0.1875 0.4375 -0.25q0.34375 -0.0625 0.78125 0.0625q0.3125 0.1875 0.296875 0.5625q-0.015625 0.359375 -0.40625 1.078125q-0.078125 0.203125 -0.4375 0.5625q-0.34375 0.34375 -0.75 0.6875q-0.40625 0.34375 -0.6875 0.515625q-0.84375 0.453125 -1.625 0.4375q-0.78125 -0.015625 -1.453125 -0.265625zm1.9375 -6.109375q0.46875 -0.109375 0.78125 -0.203125q0.328125 -0.09375 0.625 -0.34375q0.296875 -0.265625 0.71875 -0.84375q0.109375 -0.3125 0.109375 -0.5625q0 -0.25 -0.078125 -0.34375q-0.234375 -0.21875 -0.53125 -0.140625q-0.28125 0.0625 -0.59375 0.28125q-0.203125 0.09375 -0.5625 0.390625q-0.359375 0.28125 -0.703125 0.640625q-0.328125 0.34375 -0.53125 0.625q-0.1875 0.28125 -0.078125 0.34375q-0.0625 0.109375 0.3125 0.140625q0.390625 0.015625 0.53125 0.015625zm12.309692 7.734375q-0.359375 -0.21875 -0.578125 -0.515625q-0.203125 -0.296875 -0.03125 -0.859375q-0.03125 -0.359375 0.03125 -0.671875q0.078125 -0.3125 0.109375 -0.421875q0.140625 0 0.15625 -0.15625q0.03125 -0.171875 0.03125 -0.265625q0 -0.21875 0.171875 -0.75q0.171875 -0.53125 0.34375 -1.125q0.21875 -0.5 0.421875 -1.015625q0.21875 -0.515625 0.21875 -0.640625q0 -0.21875 0.109375 -0.453125q0.109375 -0.234375 0.25 -0.46875q0.140625 -0.328125 0.203125 -0.734375q0.078125 -0.40625 0.078125 -0.625q0.171875 -0.375 0.359375 -0.796875q0.203125 -0.421875 0.3125 -0.859375q0.171875 -0.484375 0.484375 -1.40625q0.328125 -0.921875 0.6875 -1.875q0.265625 -0.53125 0.515625 -1.109375q0.25 -0.59375 0.4375 -1.0q0.203125 -0.40625 0.28125 -0.40625q0 0 0 -0.09375q0 -0.109375 0 -0.21875q0 -0.140625 0.21875 -0.546875q0.234375 -0.40625 0.421875 -0.84375q0.28125 -0.421875 0.390625 -0.796875q0.125 -0.390625 0.125 -0.390625q0 0 0.09375 -0.15625q0.09375 -0.171875 0.203125 -0.3125q0.625 -0.34375 1.0625 -0.328125q0.453125 0.015625 0.6875 0.640625q0.21875 0.546875 0.1875 0.8125q-0.03125 0.25 -0.21875 0.578125q-0.234375 0.5 -0.59375 1.28125q-0.359375 0.765625 -0.765625 1.65625q-0.40625 0.875 -0.75 1.671875q-0.328125 0.796875 -0.546875 1.359375q-0.203125 0.5625 -0.203125 0.703125l-1.171875 2.84375q-0.09375 0.171875 -0.296875 0.78125q-0.1875 0.59375 -0.46875 1.484375q-0.28125 0.875 -0.59375 1.890625q-0.296875 1.0 -0.609375 1.953125q-0.296875 0.921875 -0.5 1.46875q-0.203125 0.546875 -0.359375 0.78125q-0.140625 0.25 -0.34375 0.25q-0.109375 0 -0.25 -0.109375q-0.140625 -0.09375 -0.3125 -0.203125zm9.921875 0.03125q-0.25 0.015625 -0.6875 -0.25q-0.4375 -0.265625 -0.9375 -0.65625q-0.484375 -0.390625 -0.921875 -0.8125q-0.421875 -0.421875 -0.671875 -0.71875q-0.453125 -0.640625 -1.140625 -1.71875q-0.6875 -1.078125 -1.015625 -2.296875q-0.203125 -0.890625 -0.421875 -1.421875q-0.203125 -0.53125 -0.203125 -0.921875l0.03125 -1.828125l1.828125 0.0625q0.125 1.515625 0.4375 2.515625q0.3125 0.984375 0.734375 1.734375q0.328125 0.765625 0.734375 1.46875q0.40625 0.6875 0.921875 1.171875q0.640625 0.703125 1.140625 1.046875q0.5 0.328125 0.75 0.328125q0.390625 0.15625 0.65625 0.375q0.28125 0.203125 0.40625 0.375q0.125 0.171875 0.125 0.34375q0.015625 0.078125 -0.03125 0.328125q-0.03125 0.25 -0.125 0.5q-0.078125 0.25 -0.21875 0.34375q-0.15625 0.1875 -0.4375 0.25q-0.28125 0.078125 -0.953125 -0.21875zm-6.4375 -10.59375l2.03125 -1.515625q0.09375 -0.078125 0.53125 -0.484375q0.453125 -0.40625 1.625 -1.296875l3.625 -2.9375q0.6875 -0.375 1.328125 -0.859375q0.65625 -0.484375 1.046875 -0.75q0.46875 -0.328125 0.921875 -0.640625q0.46875 -0.328125 0.59375 -0.296875q0.21875 -0.125 0.5 0.15625q0.28125 0.28125 0.46875 0.671875q0.203125 0.375 0.171875 0.59375q0.0625 0.28125 -0.09375 0.484375q-0.15625 0.1875 -0.765625 0.546875q-0.65625 0.28125 -1.0625 0.546875q-0.40625 0.265625 -0.453125 0.4375q0 0 -0.5625 0.4375q-0.5625 0.4375 -1.375 0.984375q-1.125 0.734375 -1.875 1.34375q-0.734375 0.59375 -0.953125 0.9375q-0.109375 0 -0.21875 0.078125q-0.09375 0.078125 -0.203125 0.046875q0 0 -0.21875 0.15625q-0.21875 0.15625 -0.34375 0.296875q-0.046875 0.140625 -0.234375 0.390625q-0.171875 0.234375 -0.453125 0.203125q-0.171875 0.109375 -0.6875 0.46875q-0.5 0.34375 -1.046875 0.765625q-0.546875 0.421875 -0.9375 0.765625q-0.390625 0.328125 -0.40625 0.375l-0.953125 -1.90625z" fill-rule="nonzero"/></g></svg>